<mxfile host="65bd71144e" modified="2020-12-15T14:49:33.867Z" agent="5.0 (X11; Linux x86_64) AppleWebKit/537.36 (KHTML, like Gecko) Code/1.52.0 Chrome/83.0.4103.122 Electron/9.3.5 Safari/537.36" etag="pkrDCRlTKTCECsvCl5Oq" version="13.10.0" type="embed">
    <diagram id="PiXN8TsfP4yFwK-LU0Cb" name="Page-1">
        <mxGraphModel dx="983" dy="650" grid="1" gridSize="10" guides="1" tooltips="1" connect="1" arrows="1" fold="1" page="1" pageScale="1" pageWidth="827" pageHeight="1169" math="0" shadow="0">
            <root>
                <mxCell id="0"/>
                <mxCell id="1" parent="0"/>
                <mxCell id="c84KIxqxelt80kFMZwKS-1" value="Start" style="ellipse;whiteSpace=wrap;html=1;" parent="1" vertex="1">
                    <mxGeometry x="353" y="20" width="120" height="80" as="geometry"/>
                </mxCell>
                <mxCell id="c84KIxqxelt80kFMZwKS-2" value="" style="endArrow=classic;html=1;exitX=0.5;exitY=1;exitDx=0;exitDy=0;" parent="1" source="c84KIxqxelt80kFMZwKS-1" edge="1">
                    <mxGeometry width="50" height="50" relative="1" as="geometry">
                        <mxPoint x="350" y="170" as="sourcePoint"/>
                        <mxPoint x="413" y="130" as="targetPoint"/>
                    </mxGeometry>
                </mxCell>
                <mxCell id="c84KIxqxelt80kFMZwKS-3" value="Wywołanie algorytmu inicjalizującego" style="rounded=0;whiteSpace=wrap;html=1;" parent="1" vertex="1">
                    <mxGeometry x="308" y="130" width="212" height="30" as="geometry"/>
                </mxCell>
                <mxCell id="c84KIxqxelt80kFMZwKS-4" value="" style="endArrow=classic;html=1;exitX=0;exitY=0.5;exitDx=0;exitDy=0;" parent="1" source="c84KIxqxelt80kFMZwKS-3" edge="1">
                    <mxGeometry width="50" height="50" relative="1" as="geometry">
                        <mxPoint x="310" y="230" as="sourcePoint"/>
                        <mxPoint x="280" y="145" as="targetPoint"/>
                    </mxGeometry>
                </mxCell>
                <mxCell id="c84KIxqxelt80kFMZwKS-5" value="" style="endArrow=classic;html=1;entryX=0.009;entryY=0.5;entryDx=0;entryDy=0;entryPerimeter=0;" parent="1" target="c84KIxqxelt80kFMZwKS-6" edge="1">
                    <mxGeometry width="50" height="50" relative="1" as="geometry">
                        <mxPoint x="280" y="185" as="sourcePoint"/>
                        <mxPoint x="310" y="190" as="targetPoint"/>
                    </mxGeometry>
                </mxCell>
                <mxCell id="c84KIxqxelt80kFMZwKS-6" value="Wywołanie algorytmu czasowego" style="rounded=0;whiteSpace=wrap;html=1;" parent="1" vertex="1">
                    <mxGeometry x="308" y="170" width="212" height="30" as="geometry"/>
                </mxCell>
                <mxCell id="c84KIxqxelt80kFMZwKS-7" value="&lt;b&gt;Algorytm inicjalizujący:&lt;/b&gt;&lt;br&gt;1. Ustawienie zegara symulacji na 0&lt;br&gt;2. Inicjalizacja stanu systemu i liczników&lt;br&gt;3. Inicjalizacja nowego zdarzenia przybycia dla każdego źródła napływu&amp;nbsp;" style="rounded=0;whiteSpace=wrap;html=1;" parent="1" vertex="1">
                    <mxGeometry x="40" y="100" width="240" height="130" as="geometry"/>
                </mxCell>
                <mxCell id="c84KIxqxelt80kFMZwKS-8" value="" style="endArrow=classic;html=1;exitX=1;exitY=0.75;exitDx=0;exitDy=0;" parent="1" source="c84KIxqxelt80kFMZwKS-6" edge="1">
                    <mxGeometry width="50" height="50" relative="1" as="geometry">
                        <mxPoint x="40" y="300" as="sourcePoint"/>
                        <mxPoint x="560" y="193" as="targetPoint"/>
                    </mxGeometry>
                </mxCell>
                <mxCell id="c84KIxqxelt80kFMZwKS-9" value="&lt;b&gt;Algorytm czasowy:&lt;/b&gt;&lt;br&gt;1. Określ moment, w którym wysyłany będzie następny pakiet:&lt;br&gt;a) po czasie trwania jednego pakietu (gdy stan ON trwa)&lt;br&gt;b) po czasie trwania t_OFF w p.p.&lt;br&gt;2. Zwiększ czas zegara" style="rounded=0;whiteSpace=wrap;html=1;" parent="1" vertex="1">
                    <mxGeometry x="560" y="130" width="190" height="120" as="geometry"/>
                </mxCell>
                <mxCell id="c84KIxqxelt80kFMZwKS-10" value="Wywołanie algorytmu zdarzeniowego" style="rounded=0;whiteSpace=wrap;html=1;" parent="1" vertex="1">
                    <mxGeometry x="307.5" y="210" width="211" height="30" as="geometry"/>
                </mxCell>
                <mxCell id="c84KIxqxelt80kFMZwKS-11" value="" style="endArrow=classic;html=1;exitX=0;exitY=0.75;exitDx=0;exitDy=0;" parent="1" source="c84KIxqxelt80kFMZwKS-9" edge="1">
                    <mxGeometry width="50" height="50" relative="1" as="geometry">
                        <mxPoint x="40" y="320" as="sourcePoint"/>
                        <mxPoint x="520" y="223" as="targetPoint"/>
                    </mxGeometry>
                </mxCell>
                <mxCell id="c84KIxqxelt80kFMZwKS-12" value="" style="endArrow=classic;html=1;exitX=0.5;exitY=1;exitDx=0;exitDy=0;" parent="1" source="c84KIxqxelt80kFMZwKS-10" edge="1">
                    <mxGeometry width="50" height="50" relative="1" as="geometry">
                        <mxPoint x="40" y="320" as="sourcePoint"/>
                        <mxPoint x="413" y="270" as="targetPoint"/>
                    </mxGeometry>
                </mxCell>
                <mxCell id="c84KIxqxelt80kFMZwKS-13" value="&lt;b&gt;Algorytm zdarzeniowy:&lt;br&gt;&lt;/b&gt;1. Uaktualnienie stanu systemu&lt;br&gt;2.Uaktualnienie liczników statystyk&lt;br&gt;3. Ewentualne generowanie kolejnego zdarzenia i dodanie go do listy zdarzeń" style="rounded=0;whiteSpace=wrap;html=1;" parent="1" vertex="1">
                    <mxGeometry x="301.5" y="270" width="223" height="90" as="geometry"/>
                </mxCell>
                <mxCell id="c84KIxqxelt80kFMZwKS-16" value="" style="endArrow=classic;html=1;exitX=1;exitY=0.25;exitDx=0;exitDy=0;" parent="1" source="c84KIxqxelt80kFMZwKS-13" edge="1">
                    <mxGeometry width="50" height="50" relative="1" as="geometry">
                        <mxPoint x="40" y="430" as="sourcePoint"/>
                        <mxPoint x="570" y="293" as="targetPoint"/>
                    </mxGeometry>
                </mxCell>
                <mxCell id="c84KIxqxelt80kFMZwKS-17" value="" style="endArrow=classic;html=1;exitX=1;exitY=0.75;exitDx=0;exitDy=0;" parent="1" source="c84KIxqxelt80kFMZwKS-13" edge="1">
                    <mxGeometry width="50" height="50" relative="1" as="geometry">
                        <mxPoint x="40" y="430" as="sourcePoint"/>
                        <mxPoint x="570" y="338" as="targetPoint"/>
                    </mxGeometry>
                </mxCell>
                <mxCell id="c84KIxqxelt80kFMZwKS-18" value="Generowanie zmiennych losowych" style="rounded=0;whiteSpace=wrap;html=1;" parent="1" vertex="1">
                    <mxGeometry x="570" y="270" width="160" height="90" as="geometry"/>
                </mxCell>
                <mxCell id="c84KIxqxelt80kFMZwKS-19" value="" style="endArrow=classic;html=1;exitX=0.5;exitY=1;exitDx=0;exitDy=0;entryX=0.5;entryY=0;entryDx=0;entryDy=0;" parent="1" source="c84KIxqxelt80kFMZwKS-13" target="c84KIxqxelt80kFMZwKS-21" edge="1">
                    <mxGeometry width="50" height="50" relative="1" as="geometry">
                        <mxPoint x="40" y="430" as="sourcePoint"/>
                        <mxPoint x="413" y="400" as="targetPoint"/>
                    </mxGeometry>
                </mxCell>
                <mxCell id="c84KIxqxelt80kFMZwKS-21" value="Koniec symulacji?" style="rhombus;whiteSpace=wrap;html=1;" parent="1" vertex="1">
                    <mxGeometry x="346" y="390" width="134" height="80" as="geometry"/>
                </mxCell>
                <mxCell id="c84KIxqxelt80kFMZwKS-22" value="" style="endArrow=classic;html=1;exitX=0.5;exitY=1;exitDx=0;exitDy=0;" parent="1" source="c84KIxqxelt80kFMZwKS-21" edge="1">
                    <mxGeometry width="50" height="50" relative="1" as="geometry">
                        <mxPoint x="40" y="550" as="sourcePoint"/>
                        <mxPoint x="413" y="510" as="targetPoint"/>
                    </mxGeometry>
                </mxCell>
                <mxCell id="c84KIxqxelt80kFMZwKS-23" value="" style="endArrow=none;html=1;entryX=1;entryY=0.5;entryDx=0;entryDy=0;" parent="1" target="c84KIxqxelt80kFMZwKS-21" edge="1">
                    <mxGeometry width="50" height="50" relative="1" as="geometry">
                        <mxPoint x="760" y="430" as="sourcePoint"/>
                        <mxPoint x="90" y="540" as="targetPoint"/>
                    </mxGeometry>
                </mxCell>
                <mxCell id="c84KIxqxelt80kFMZwKS-24" value="NIE" style="text;html=1;strokeColor=none;fillColor=none;align=center;verticalAlign=middle;whiteSpace=wrap;rounded=0;" parent="1" vertex="1">
                    <mxGeometry x="500" y="400" width="40" height="20" as="geometry"/>
                </mxCell>
                <mxCell id="c84KIxqxelt80kFMZwKS-25" value="TAK" style="text;html=1;strokeColor=none;fillColor=none;align=center;verticalAlign=middle;whiteSpace=wrap;rounded=0;" parent="1" vertex="1">
                    <mxGeometry x="370" y="470" width="40" height="20" as="geometry"/>
                </mxCell>
                <mxCell id="c84KIxqxelt80kFMZwKS-26" value="" style="endArrow=none;html=1;" parent="1" edge="1">
                    <mxGeometry width="50" height="50" relative="1" as="geometry">
                        <mxPoint x="760" y="430" as="sourcePoint"/>
                        <mxPoint x="760" y="120" as="targetPoint"/>
                    </mxGeometry>
                </mxCell>
                <mxCell id="c84KIxqxelt80kFMZwKS-27" value="" style="endArrow=none;html=1;" parent="1" edge="1">
                    <mxGeometry width="50" height="50" relative="1" as="geometry">
                        <mxPoint x="760" y="120" as="sourcePoint"/>
                        <mxPoint x="540" y="120" as="targetPoint"/>
                    </mxGeometry>
                </mxCell>
                <mxCell id="c84KIxqxelt80kFMZwKS-28" value="" style="endArrow=none;html=1;" parent="1" edge="1">
                    <mxGeometry width="50" height="50" relative="1" as="geometry">
                        <mxPoint x="540" y="120" as="sourcePoint"/>
                        <mxPoint x="540" y="180" as="targetPoint"/>
                    </mxGeometry>
                </mxCell>
                <mxCell id="c84KIxqxelt80kFMZwKS-29" value="" style="endArrow=classic;html=1;entryX=1;entryY=0.25;entryDx=0;entryDy=0;" parent="1" target="c84KIxqxelt80kFMZwKS-6" edge="1">
                    <mxGeometry width="50" height="50" relative="1" as="geometry">
                        <mxPoint x="540" y="178" as="sourcePoint"/>
                        <mxPoint x="540" y="178" as="targetPoint"/>
                    </mxGeometry>
                </mxCell>
                <mxCell id="c84KIxqxelt80kFMZwKS-30" value="Generator raportów:&lt;br&gt;&lt;span style=&quot;font-weight: normal&quot;&gt;1. Oblicz interesujące estymacje&lt;br&gt;2. Sporządź raport&lt;/span&gt;" style="rounded=0;whiteSpace=wrap;html=1;fontStyle=1" parent="1" vertex="1">
                    <mxGeometry x="346" y="510" width="134" height="60" as="geometry"/>
                </mxCell>
                <mxCell id="c84KIxqxelt80kFMZwKS-31" value="" style="endArrow=classic;html=1;exitX=0.5;exitY=1;exitDx=0;exitDy=0;" parent="1" source="c84KIxqxelt80kFMZwKS-30" edge="1">
                    <mxGeometry width="50" height="50" relative="1" as="geometry">
                        <mxPoint x="40" y="640" as="sourcePoint"/>
                        <mxPoint x="413" y="600" as="targetPoint"/>
                    </mxGeometry>
                </mxCell>
                <mxCell id="c84KIxqxelt80kFMZwKS-32" value="Stop" style="ellipse;whiteSpace=wrap;html=1;" parent="1" vertex="1">
                    <mxGeometry x="354" y="600" width="120" height="80" as="geometry"/>
                </mxCell>
            </root>
        </mxGraphModel>
    </diagram>
</mxfile>
